# xmcd
#
# Track frame offsets:
#	150
#	12135
#	27156
#	47299
#	70618
#	86112
#	98494
#	114765
#	133586
#	151536
#	162523
#	173649
#	182414
#	209342
#
# Disc length: 2973 seconds
#
# Revision: 1
# Processed by: cddbd v1.5.2PL0 Copyright (c) Steve Scherf et al.
# Submitted via: audiograbber 1.83.01
#
DISCID=980b9b0e
DTITLE=Colored Wolf - Blue.sing
DYEAR=1900
DGENRE=Blues
TTITLE0=sweet home chicago - Robert Johnson
TTITLE1=highway 61 revisited - Bob Dylan
TTITLE2=beer drinking woman - Memphis Slim
TTITLE3=trouble in mind - Otis Spann
TTITLE4=crossroad blues - Robert Johnson
TTITLE5=i can't hold out - Elmore James
TTITLE6=the crazy cries of love - Joni Mitchell
TTITLE7=magdalene laundries - Joni Mitchell
TTITLE8=shadows and light - Joni Mitchell
TTITLE9=rye whisky - trad. Bearbeitung W. Kallert
TTITLE10=sunny sunday - Joni Mitchell
TTITLE11=from four until late - Robert Johnson
TTITLE12=amelia - Joni Mitchell
TTITLE13=ain't nobody's business - Porter Grainger/Everett Robbins
EXTD=Piano: Wolfgang Dauner - Mundharmonika: Michel Roth
EXTT0=
EXTT1=
EXTT2=
EXTT3=
EXTT4=
EXTT5=
EXTT6=
EXTT7=
EXTT8=
EXTT9=
EXTT10=
EXTT11=
EXTT12=
EXTT13=
PLAYORDER=
